<?xml version="1.0" encoding="iso-8859-1"?>
<!-- Generator: Adobe Illustrator 19.0.0, SVG Export Plug-In . SVG Version: 6.00 Build 0)  -->
<svg version="1.1" id="Layer_1" xmlns="http://www.w3.org/2000/svg" xmlns:xlink="http://www.w3.org/1999/xlink" x="0px" y="0px"
	 viewBox="0 0 504 504" style="enable-background:new 0 0 504 504;" xml:space="preserve">
<circle style="fill:#FD8469;" cx="252" cy="252" r="252"/>
<polygon style="fill:#54C0EB;" points="170.1,187.1 128.9,187.1 140.2,117.3 158.8,117.3 "/>
<path style="fill:#84DBFF;" d="M188.6,323.9V200.7c0-21.6-17.5-39.1-39.1-39.1s-39.1,17.5-39.1,39.1v123.2L188.6,323.9L188.6,323.9z
	"/>
<rect x="123.9" y="204.3" style="fill:#324A5E;" width="64.7" height="119.5"/>
<polygon style="fill:#2C9984;" points="272.6,187.1 231.4,187.1 242.7,117.3 261.3,117.3 "/>
<path style="fill:#4CDBC4;" d="M291.1,323.9V200.7c0-21.6-17.5-39.1-39.1-39.1s-39.1,17.5-39.1,39.1v123.2L291.1,323.9L291.1,323.9z
	"/>
<rect x="226.4" y="204.3" style="fill:#FFFFFF;" width="64.7" height="119.5"/>
<polygon style="fill:#F9B54C;" points="375.1,187.1 333.9,187.1 345.2,117.3 363.8,117.3 "/>
<path style="fill:#FFD05B;" d="M393.6,323.9V200.7c0-21.6-17.5-39.1-39.1-39.1s-39.1,17.5-39.1,39.1v123.2L393.6,323.9L393.6,323.9z
	"/>
<rect x="328.9" y="204.3" style="fill:#F1543F;" width="64.7" height="119.5"/>
<path style="fill:#E6E9EE;" d="M409,400.9H95c-3.6,0-6.4-2.9-6.4-6.4v-70.6h326.9v70.6C415.4,398,412.6,400.9,409,400.9z"/>
<path style="fill:#ACB3BA;" d="M294.2,362.4h-84.3c-5,0-9.1-4.1-9.1-9.1l0,0c0-5,4.1-9.1,9.1-9.1h84.3c5,0,9.1,4.1,9.1,9.1l0,0
	C303.2,358.3,299.2,362.4,294.2,362.4z"/>
<g>
</g>
<g>
</g>
<g>
</g>
<g>
</g>
<g>
</g>
<g>
</g>
<g>
</g>
<g>
</g>
<g>
</g>
<g>
</g>
<g>
</g>
<g>
</g>
<g>
</g>
<g>
</g>
<g>
</g>
</svg>
